<svg width="113" height="91" viewBox="0 0 113 91" fill="none" xmlns="http://www.w3.org/2000/svg">
<path d="M103.439 2.78394C103.439 2.78394 106.473 33.3608 77.5637 31.9199L88.7742 17.6845L73.4082 28.913C73.4082 28.913 71.0993 6.02955 103.439 2.78394Z" fill="#6CB865"/>
<path d="M105.31 1C105.31 1 108.144 34.7001 75.5382 33.0714L85.0663 21.3209L72.4507 30.4999C72.4507 30.4999 68.8322 4.65729 105.31 1Z" stroke="white" stroke-width="0.5" stroke-miterlimit="10"/>
<path d="M54.582 16.5211C54.582 16.5211 53.5976 31.6455 67.8807 31.3203L61.3775 23.2391L70.3179 29.253C70.3209 29.253 70.9801 17.8128 54.582 16.5211Z" fill="#6CB865"/>
<path d="M53.2007 15.2533C53.2007 15.2533 52.0791 33.1579 69.3513 31.9259L64.1666 25.8015L70.9592 30.5268C70.9592 30.5268 72.5849 16.7806 53.2007 15.2533Z" stroke="white" stroke-width="0.5" stroke-miterlimit="10"/>
<path opacity="0.14" d="M89.529 7.78064L87.1246 17.3773" stroke="white" stroke-width="0.6" stroke-miterlimit="10" stroke-linecap="round"/>
<path opacity="0.14" d="M84.6785 11.2649L82.2741 20.8615" stroke="white" stroke-width="0.6" stroke-miterlimit="10" stroke-linecap="round"/>
<path opacity="0.14" d="M80.2605 14.9132L77.8561 24.5099" stroke="white" stroke-width="0.6" stroke-miterlimit="10" stroke-linecap="round"/>
<path opacity="0.14" d="M81.0868 28.1909L90.8684 26.7233" stroke="white" stroke-width="0.6" stroke-miterlimit="10" stroke-linecap="round"/>
<path opacity="0.14" d="M85.0215 23.6985L94.8061 22.2338" stroke="white" stroke-width="0.6" stroke-miterlimit="10" stroke-linecap="round"/>
<path opacity="0.14" d="M89.0785 19.6534L98.8631 18.1857" stroke="white" stroke-width="0.6" stroke-miterlimit="10" stroke-linecap="round"/>
<path opacity="0.14" d="M61.1209 18.3766L62.7467 23.6179" stroke="white" stroke-width="0.4" stroke-miterlimit="10" stroke-linecap="round"/>
<path opacity="0.14" d="M63.412 19.7876L64.9811 24.4651" stroke="white" stroke-width="0.4" stroke-miterlimit="10" stroke-linecap="round"/>
<path opacity="0.14" d="M65.7029 22.0697L67.2511 26.5115" stroke="white" stroke-width="0.4" stroke-miterlimit="10" stroke-linecap="round"/>
<path opacity="0.14" d="M65.0675 28.9129L60.4258 28.4415" stroke="white" stroke-width="0.4" stroke-miterlimit="10" stroke-linecap="round"/>
<path opacity="0.14" d="M63.3224 26.5444L59.4771 25.9209" stroke="white" stroke-width="0.4" stroke-miterlimit="10" stroke-linecap="round"/>
<path opacity="0.14" d="M61.4551 24.2234L57.4965 23.6208" stroke="white" stroke-width="0.4" stroke-miterlimit="10" stroke-linecap="round"/>
<path d="M3.97214 31.3229V7.49508H18.3526V10.0547H6.85754V18.1059H17.608V20.6656H6.85754V28.7633H18.5388V31.3229H3.97214Z" fill="white"/>
<path d="M36.5842 13.452C36.4446 12.2731 35.8783 11.3578 34.8855 10.7063C33.8927 10.0547 32.6749 9.72894 31.2322 9.72894C30.1773 9.72894 29.2543 9.89959 28.4632 10.2409C27.6798 10.5822 27.067 11.0514 26.6249 11.6487C26.1905 12.2459 25.9733 12.9246 25.9733 13.6847C25.9733 14.3208 26.1246 14.8676 26.4271 15.3252C26.7374 15.7751 27.1329 16.1513 27.6138 16.4538C28.0947 16.7485 28.5989 16.9929 29.1263 17.1868C29.6538 17.3729 30.1386 17.5242 30.5807 17.6405L33.0007 18.2921C33.6212 18.455 34.3115 18.6799 35.0717 18.9669C35.8396 19.2539 36.5725 19.6456 37.2706 20.142C37.9765 20.6307 38.5582 21.2589 39.0158 22.0268C39.4735 22.7947 39.7023 23.7371 39.7023 24.854C39.7023 26.1416 39.3649 27.3051 38.6901 28.3445C38.023 29.3838 37.0457 30.2099 35.7581 30.8226C34.4783 31.4354 32.9231 31.7418 31.0926 31.7418C29.3862 31.7418 27.9086 31.4664 26.6598 30.9157C25.4188 30.365 24.4414 29.5971 23.7278 28.612C23.022 27.627 22.6225 26.4829 22.5295 25.1798H25.508C25.5855 26.0796 25.888 26.8242 26.4155 27.4137C26.9507 27.9954 27.6255 28.4298 28.4399 28.7168C29.2621 28.996 30.1463 29.1356 31.0926 29.1356C32.194 29.1356 33.183 28.9572 34.0594 28.6004C34.9359 28.2359 35.6301 27.7317 36.1421 27.0879C36.654 26.4364 36.9099 25.6762 36.9099 24.8075C36.9099 24.0163 36.6889 23.3726 36.2468 22.8761C35.8047 22.3797 35.2229 21.9764 34.5016 21.6661C33.7802 21.3559 33.0007 21.0844 32.163 20.8517L29.2311 20.014C27.3695 19.4788 25.8958 18.7148 24.8099 17.722C23.724 16.7292 23.181 15.4299 23.181 13.8244C23.181 12.4902 23.5417 11.3268 24.263 10.3339C24.9921 9.33336 25.9695 8.55772 27.195 8.00701C28.4283 7.44854 29.805 7.16931 31.3253 7.16931C32.8611 7.16931 34.2262 7.44467 35.4207 7.99537C36.6152 8.53833 37.5615 9.28295 38.2596 10.2292C38.9654 11.1755 39.3377 12.2498 39.3765 13.452H36.5842Z" fill="white"/>
<path d="M18.4803 56.7841H6.06167L3.89892 61.6018H0L10.2887 38.6677H14.2861L24.5748 61.6018H20.6759L18.4803 56.7841ZM12.2874 42.5338L7.43688 53.443H17.135L12.2874 42.5338Z" fill="white"/>
<path d="M36.4326 38.6677C38.312 38.6677 39.9974 38.9839 41.4949 39.6193C42.9924 40.2547 44.1917 41.1109 45.0985 42.1908C46.0054 43.2707 46.6975 44.4669 47.1777 45.7794C47.658 47.089 47.9086 48.4762 47.9325 49.9409C47.9772 51.4265 47.7684 52.8524 47.309 54.2157C46.8496 55.5819 46.1665 56.8199 45.2626 57.9356C44.3557 59.0483 43.1386 59.9402 41.6083 60.6055C40.0779 61.2707 38.3537 61.6048 36.4326 61.6048H27.7488V38.6707H36.4326V38.6677ZM31.3882 58.0639H36.4326C39.0547 58.0639 41.0296 57.2614 42.363 55.6565C43.6965 54.0516 44.3408 52.1335 44.2961 49.9051C44.2513 48.5508 43.9679 47.3068 43.4429 46.1702C42.9179 45.0337 42.0498 44.085 40.8386 43.3184C39.6275 42.5547 38.1568 42.1729 36.4326 42.1729H31.3882V58.0639Z" fill="white"/>
<path d="M55.9929 38.6677V58.1951H68.0834V61.6018H52.3236V38.6677H55.9929Z" fill="white"/>
<path d="M88.4939 61.6018H71.5558V38.6677H88.3954V42.2385H75.225V48.4314H87.8734V51.8381H75.225V57.9982H88.4939V61.6018Z" fill="white"/>
<path d="M113 61.6018H108.707L101.73 53.6727H96.8823V61.6018H93.213V38.6349C94.3914 38.6349 96.1723 38.6409 98.5528 38.6498C100.933 38.6617 102.714 38.6677 103.893 38.6677C106.425 38.6677 108.409 39.4045 109.838 40.8782C111.267 42.3518 111.983 44.1148 111.983 46.1702C111.983 47.9839 111.476 49.5501 110.458 50.8716C109.444 52.1931 107.875 53.0075 105.757 53.3118L112.606 60.9455L113 61.6018ZM96.8793 42.0088V50.3316H103.857C105.298 50.3316 106.389 49.9379 107.132 49.1533C107.875 48.3658 108.245 47.3963 108.245 46.2358C108.245 45.0993 107.875 44.1119 107.132 43.2706C106.389 42.4294 105.31 42.0088 103.89 42.0088H96.8793Z" fill="white"/>
<path d="M21.9199 78.7457V87.2982C20.7416 88.4766 19.42 89.3745 17.9553 89.986C16.4906 90.5975 14.9305 90.9048 13.2689 90.9048C10.9749 90.9048 8.93741 90.4096 7.15948 89.4133C5.37857 88.4199 3.99143 87.0268 2.99805 85.2369C2.00468 83.447 1.5065 81.3917 1.5065 79.0768C1.5065 76.7619 2.0017 74.7095 2.99805 72.9167C3.99143 71.1268 5.38454 69.7337 7.1744 68.7403C8.96426 67.747 11.0196 67.2488 13.3345 67.2488C16.4787 67.2488 19.2112 68.3853 21.5261 70.6555L20.5745 71.6727C19.5931 70.6913 18.4833 69.9366 17.2483 69.4115C16.0133 68.8865 14.7097 68.624 13.3345 68.624C11.303 68.624 9.50122 69.0595 7.92912 69.9336C6.35703 70.8076 5.13395 72.0367 4.2599 73.6207C3.38585 75.2047 2.95032 77.0214 2.95032 79.0768C2.95032 81.1083 3.38585 82.916 4.2599 84.5001C5.13395 86.0841 6.35106 87.3191 7.91421 88.2021C9.47437 89.0851 11.2613 89.5296 13.2719 89.5296C14.6471 89.5296 15.9746 89.279 17.2513 88.7749C18.5281 88.2737 19.6169 87.5727 20.5119 86.6777V80.1239H12.2546V78.7487H21.9199V78.7457Z" fill="white"/>
<path d="M35.481 81.7258H28.8287V90.5379H27.3878V67.6038H37.3156C38.8012 67.6038 40.1048 67.8991 41.2294 68.4897C42.3541 69.0804 43.2221 69.9097 43.8337 70.9806C44.4452 72.0516 44.7525 73.2866 44.7525 74.6827C44.7525 76.0817 44.4452 77.3078 43.8337 78.3698C43.2221 79.4288 42.36 80.2551 41.2443 80.8428C40.1316 81.4334 38.831 81.7288 37.3454 81.7288L45.4714 90.5408H43.604L35.481 81.7258ZM41.6918 70.5541C40.6119 69.5279 39.1532 69.0148 37.3186 69.0148H28.8316V80.3506H37.3186C39.1532 80.3506 40.6119 79.8375 41.6918 78.8113C42.7717 77.7851 43.3146 76.4099 43.3146 74.6827C43.3116 72.9584 42.7717 71.5802 41.6918 70.5541Z" fill="white"/>
<path d="M51.6674 89.1627H66.3771V90.5379H50.2266V67.6038H65.9535V68.979H51.6704V78.2505H65.2674V79.6257H51.6704V89.1627H51.6674Z" fill="white"/>
<path d="M73.0622 89.1627H87.7719V90.5379H71.6184V67.6038H87.3453V68.979H73.0592V78.2505H86.6562V79.6257H73.0592V89.1627H73.0622Z" fill="white"/>
<path d="M109.659 67.6068H111.067V90.5409H109.56L94.4569 69.8024V90.5409H93.0161V67.6068H94.5882L109.659 88.2797V67.6068Z" fill="white"/>
</svg>
